<svg xmlns="http://www.w3.org/2000/svg" viewBox="0 0 64 64" role="img" aria-label="CV Builder favicon">
  <defs>
    <linearGradient id="bg" x1="0" y1="0" x2="1" y2="1">
      <stop offset="0%" stop-color="#d9894d" />
      <stop offset="100%" stop-color="#c06b31" />
    </linearGradient>
  </defs>
  <rect x="4" y="4" width="56" height="56" rx="12" fill="url(#bg)" />
  <path d="M26 20c-6.2 0-11 4.8-11 12s4.8 12 11 12c3.2 0 5.9-1 7.9-3l-3.2-3c-1.3 1.1-2.8 1.7-4.7 1.7-3.8 0-6.6-3.1-6.6-7.7s2.8-7.7 6.6-7.7c1.8 0 3.4.6 4.7 1.7l3.2-3c-2-2-4.7-3-7.9-3z" fill="#fffdf7" />
  <path d="M37.2 20l8.5 24h-5l-8.5-24z" fill="#fffdf7" />
  <path d="M52 20l-8.4 24h-5l8.4-24z" fill="#fffdf7" />
</svg>
